<svg width="31" height="25" viewBox="0 0 31 25" fill="none" xmlns="http://www.w3.org/2000/svg">
<path d="M25.7546 1.02435C24.4866 0.350864 23.0722 -0.000234919 21.6364 0.00201722C20.3962 -0.0016764 19.1697 0.260943 18.0397 0.772123C16.9097 1.2833 15.9026 2.03113 15.0866 2.96504C13.7826 1.488 12.0191 0.493226 10.0805 0.141139C8.14197 -0.210947 6.14131 0.100181 4.40122 1.02435C3.08355 1.70398 1.97691 2.73112 1.20113 3.99457C0.425342 5.25802 0.00997466 6.70963 0 8.19221C0.000371766 9.05105 0.142842 9.90392 0.421639 10.7163C1.87716 17.0351 11.211 25 15.0866 25C18.8525 25 28.2729 17.0351 29.74 10.7163C30.0188 9.90392 30.1612 9.05105 30.1616 8.19221C30.1511 6.70903 29.7349 5.25702 28.958 3.99351C28.1812 2.73 27.0734 1.70319 25.7546 1.02435ZM27.4123 10.0001C27.3716 10.1126 27.297 10.2098 27.1987 10.278C27.1004 10.3463 26.9833 10.3824 26.8636 10.3813C26.8024 10.3912 26.74 10.3912 26.6788 10.3813C26.5341 10.3314 26.4151 10.2261 26.3479 10.0886C26.2808 9.95105 26.271 9.79249 26.3207 9.64773C26.4835 9.17967 26.5675 8.68779 26.569 8.19221C26.5617 7.33918 26.321 6.50444 25.873 5.77849C25.425 5.05253 24.7868 4.46307 24.0276 4.07401C23.2898 3.68332 22.4655 3.48469 21.6306 3.49642C21.4775 3.49642 21.3305 3.43557 21.2222 3.32725C21.1139 3.21893 21.0531 3.07202 21.0531 2.91883C21.0531 2.76565 21.1139 2.61874 21.2222 2.51042C21.3305 2.4021 21.4775 2.34125 21.6306 2.34125C22.6541 2.34065 23.662 2.59261 24.5648 3.07478C25.5069 3.55993 26.2989 4.29277 26.8556 5.19447C27.4123 6.09616 27.7126 7.13257 27.7242 8.19221C27.723 8.80762 27.6195 9.41855 27.4181 10.0001H27.4123Z" fill="#5FE42C"/>
</svg>
