<svg width="53" height="44" viewBox="0 0 53 44" fill="none" xmlns="http://www.w3.org/2000/svg">
<path d="M44.59 1.77349C42.3945 0.607464 39.9459 -0.000406724 37.46 0.0034925C35.3128 -0.00290242 33.1892 0.451782 31.2328 1.33681C29.2764 2.22183 27.5329 3.51657 26.12 5.13349C23.8624 2.57624 20.8092 0.853942 17.4528 0.24436C14.0965 -0.365221 10.6327 0.173447 7.62 1.77349C5.33867 2.95016 3.4227 4.7285 2.07956 6.91596C0.736411 9.10342 0.0172695 11.6166 0 14.1835C0.000643654 15.6705 0.247308 17.1471 0.73 18.5535C3.25 29.4935 19.41 43.2835 26.12 43.2835C32.64 43.2835 48.95 29.4935 51.49 18.5535C51.9727 17.1471 52.2194 15.6705 52.22 14.1835C52.2018 11.6156 51.4811 9.10168 50.1362 6.91412C48.7912 4.72656 46.8732 2.94881 44.59 1.77349ZM47.46 17.3135C47.3896 17.5084 47.2603 17.6766 47.0901 17.7948C46.9199 17.913 46.7172 17.9755 46.51 17.9735C46.404 17.9907 46.296 17.9907 46.19 17.9735C45.9395 17.8871 45.7335 17.7049 45.6172 17.4668C45.501 17.2287 45.484 16.9541 45.57 16.7035C45.852 15.8931 45.9973 15.0415 46 14.1835C45.9873 12.7066 45.5705 11.2614 44.7949 10.0045C44.0193 8.74765 42.9144 7.72709 41.6 7.05349C40.3225 6.37708 38.8953 6.03318 37.45 6.05349C37.1848 6.05349 36.9304 5.94814 36.7429 5.7606C36.5554 5.57306 36.45 5.31871 36.45 5.05349C36.45 4.78828 36.5554 4.53392 36.7429 4.34639C36.9304 4.15885 37.1848 4.05349 37.45 4.05349C39.222 4.05246 40.9669 4.48869 42.53 5.32349C44.1611 6.16345 45.5324 7.43225 46.4962 8.99339C47.46 10.5545 47.9799 12.3489 48 14.1835C47.9979 15.249 47.8188 16.3067 47.47 17.3135H47.46Z" fill="#C0C0C0"/>
</svg>
