<svg width="373" height="373" viewBox="0 0 373 373" fill="none" xmlns="http://www.w3.org/2000/svg">
<path d="M186.5 0C83.5097 0 0 83.4933 0 186.492C0 289.49 83.5015 372.984 186.5 372.984C289.507 372.984 373 289.49 373 186.492C373 83.4933 289.507 0 186.5 0ZM186.5 55.7632C220.579 55.7632 248.194 83.3868 248.194 117.449C248.194 151.52 220.579 179.135 186.5 179.135C152.437 179.135 124.822 151.52 124.822 117.449C124.822 83.3868 152.437 55.7632 186.5 55.7632ZM186.459 324.225C152.47 324.225 121.34 311.846 97.3296 291.358C91.4805 286.369 88.1054 279.054 88.1054 271.378C88.1054 236.832 116.065 209.184 150.619 209.184H222.398C256.96 209.184 284.813 236.832 284.813 271.378C284.813 279.062 281.454 286.361 275.597 291.35C251.594 311.846 220.456 324.225 186.459 324.225Z" fill="#5FE42C"/>
</svg>
