<svg width="47" height="47" viewBox="0 0 47 47" fill="none" xmlns="http://www.w3.org/2000/svg">
<path d="M13.019 27.6156C13.1551 26.2306 12.902 24.8351 12.288 23.5861C11.6741 22.3372 10.7237 21.2844 9.54391 20.5462C7.49856 19.3548 3.99367 18.7888 2.09726 20.9235C0.200848 23.0582 0.935584 26.722 2.98093 28.7375C4.03357 29.7209 5.37657 30.3366 6.80862 30.4923C8.24066 30.648 9.68461 30.3354 10.924 29.6014L32.003 44.8719C32.5147 45.3813 33.2072 45.6672 33.9292 45.6672C34.6511 45.6672 35.3437 45.3813 35.8554 44.8719C36.5306 43.9386 36.1632 42.0124 34.4951 41.1486L13.019 27.6156Z" stroke="white" stroke-width="2" stroke-miterlimit="10"/>
<path d="M26.9194 36.0948L35.1604 29.8595C36.4084 30.4765 37.8039 30.7328 39.1898 30.5994C40.5756 30.4661 41.8967 29.9485 43.0042 29.1049C44.841 27.6155 46.6083 24.5376 45.2878 22.0057C43.9673 19.4739 40.2638 18.8682 37.6624 20.02C36.3719 20.657 35.3224 21.6948 34.6709 22.9781C34.0194 24.2614 33.801 25.7212 34.0483 27.139L23.6429 34.0495" stroke="white" stroke-width="2" stroke-miterlimit="10"/>
<path d="M19.989 36.1743L11.9169 41.5358C11.2597 41.8347 10.7477 42.3817 10.4928 43.0572C10.2379 43.7326 10.2608 44.4815 10.5566 45.14C11.1921 46.1329 13.1183 46.4308 14.5282 45.14L22.7989 38.8848" stroke="white" stroke-width="2" stroke-miterlimit="10"/>
<path d="M15.5012 26.0071L13.5154 15.2144C12.3941 15.2153 11.2893 14.9449 10.2951 14.4262C9.30099 13.9075 8.4471 13.156 7.80635 12.2358C7.15496 11.2442 6.79802 10.0882 6.77693 8.90202C6.75584 7.7158 7.07147 6.5479 7.68721 5.53379C8.26403 4.71487 9.02383 4.0417 9.90628 3.56773C10.7887 3.09376 11.7695 2.83204 12.7708 2.80335C13.6984 2.79489 14.6178 2.97739 15.4719 3.33952C16.326 3.70164 17.0964 4.23563 17.7352 4.90827C18.0099 4.15834 18.4326 3.47131 18.9781 2.88801C19.5237 2.30472 20.1809 1.83707 20.9108 1.51288C21.6407 1.18869 22.4284 1.01457 23.2269 1.00088C24.0254 0.987181 24.8186 1.13419 25.5592 1.43317C26.3243 1.75568 27.0161 2.22988 27.5929 2.82715C28.1697 3.42442 28.6195 4.13237 28.9151 4.90827C29.4042 4.18162 30.0475 3.57176 30.7992 3.12213C31.5508 2.67249 32.3924 2.39414 33.264 2.30691C36.2426 2.14804 38.0199 4.6799 38.3575 5.15649C38.9415 5.97222 39.3341 6.90918 39.5061 7.89762C39.678 8.88607 39.6247 9.90055 39.3504 10.8656C38.8982 12.098 38.0911 13.1688 37.0308 13.9429C35.9705 14.7169 34.7046 15.1593 33.393 15.2144L31.1392 26.2553" stroke="white" stroke-width="2" stroke-miterlimit="10"/>
<path d="M15.0247 24.1405H31.6754C31.8729 24.1405 32.0623 24.0621 32.202 23.9224C32.3416 23.7828 32.4201 23.5933 32.4201 23.3958C32.4201 23.1984 32.3416 23.0089 32.202 22.8693C32.0623 22.7296 31.8729 22.6512 31.6754 22.6512H15.0247C14.8272 22.6512 14.6378 22.7296 14.4981 22.8693C14.3585 23.0089 14.28 23.1984 14.28 23.3958C14.28 23.5933 14.3585 23.7828 14.4981 23.9224C14.6378 24.0621 14.8272 24.1405 15.0247 24.1405Z" fill="white"/>
<path d="M17.8246 18.5108L18.5693 23.6043C18.7083 24.5972 20.1381 24.1504 20.009 23.2072L19.2643 18.1236C19.1253 17.1307 17.6956 17.5775 17.8246 18.5208V18.5108Z" fill="white"/>
<path d="M22.4514 14.2116L22.511 23.088C22.511 23.2855 22.5894 23.4749 22.7291 23.6145C22.8687 23.7542 23.0582 23.8327 23.2557 23.8327C23.4532 23.8327 23.6426 23.7542 23.7822 23.6145C23.9219 23.4749 24.0003 23.2855 24.0003 23.088L23.9407 14.2116C23.9407 14.0141 23.8623 13.8247 23.7226 13.685C23.583 13.5454 23.3936 13.4669 23.1961 13.4669C22.9986 13.4669 22.8092 13.5454 22.6695 13.685C22.5299 13.8247 22.4514 14.0141 22.4514 14.2116Z" fill="white"/>
<path d="M27.1974 18.0541L26.3932 22.7703C26.2343 23.7036 27.6641 24.1107 27.8328 23.1674L28.6371 18.4512C28.7959 17.5179 27.3662 17.1108 27.1974 18.0541Z" fill="white"/>
<path d="M32.7079 5.86145C36.4213 6.02031 36.8483 10.2897 33.7008 11.8188C32.8469 12.2457 33.6015 13.5365 34.4554 13.1095C35.4273 12.6729 36.2329 11.9352 36.7532 11.0054C37.2735 10.0757 37.4809 9.00321 37.3447 7.94651C37.0974 6.91017 36.5021 5.98998 35.6583 5.33949C34.8145 4.689 33.7731 4.34756 32.7079 4.37212C31.715 4.37212 31.715 5.82173 32.7079 5.86145Z" fill="white"/>
<path d="M2.62346 24.0313C2.61475 24.6112 2.7611 25.183 3.04736 25.6875C3.33363 26.1919 3.74943 26.6108 4.25179 26.9007C4.41961 26.9657 4.60528 26.9677 4.77446 26.9064C4.94364 26.845 5.08489 26.7245 5.17208 26.5671C5.25927 26.4097 5.2865 26.226 5.24874 26.05C5.21098 25.8741 5.11077 25.7178 4.96667 25.61C4.68823 25.453 4.45789 25.223 4.30043 24.9448C4.14297 24.6667 4.06436 24.3508 4.07307 24.0313C4.07307 23.8338 3.99461 23.6444 3.85496 23.5047C3.71531 23.3651 3.5259 23.2866 3.3284 23.2866C3.13091 23.2866 2.9415 23.3651 2.80185 23.5047C2.6622 23.6444 2.58374 23.8338 2.58374 24.0313H2.62346Z" fill="white"/>
<path d="M16.4842 25.8185C16.4723 25.9716 16.427 26.1203 16.3516 26.2541C16.2761 26.3879 16.1722 26.5035 16.0473 26.5929C15.8403 26.7541 15.5779 26.8269 15.3175 26.7953C15.057 26.7636 14.8197 26.6302 14.6573 26.4241C14.6004 26.3457 14.5568 26.2585 14.5282 26.166" fill="white"/>
<path d="M32.1321 26.3149C32.1053 26.5197 32.0154 26.711 31.8748 26.8623C31.7342 27.0136 31.55 27.1172 31.3477 27.1589C31.1056 27.2227 30.8483 27.1927 30.6273 27.0749C30.4064 26.957 30.2381 26.7601 30.1562 26.5234C30.1082 26.3262 30.1329 26.1182 30.2257 25.9376" fill="white"/>
</svg>
