<svg width="50" height="45" viewBox="0 0 50 45" fill="none" xmlns="http://www.w3.org/2000/svg">
<path d="M36.5687 15.4081V0.928598C36.5666 0.684386 36.4692 0.45065 36.2973 0.277194C36.1253 0.103738 35.8925 0.00427551 35.6483 0L0.928598 0C0.682982 0.00214524 0.448034 0.100668 0.274351 0.274351C0.100668 0.448034 0.00214524 0.682982 0 0.928598L0 44.0714C0.00214524 44.317 0.100668 44.552 0.274351 44.7257C0.448034 44.8993 0.682982 44.9979 0.928598 45L35.6647 44.8028C35.8949 44.7811 36.1086 44.6743 36.2642 44.5033C36.4198 44.3323 36.5061 44.1095 36.5061 43.8783C36.5061 43.6471 36.4198 43.4243 36.2642 43.2533C36.1086 43.0823 35.8949 42.9755 35.6647 42.9538L0.928598 43.1428L1.8572 44.0714V0.928598L0.928598 1.84898H35.6483L34.7197 0.928598V15.4081C34.7414 15.6383 34.8482 15.8521 35.0192 16.0077C35.1901 16.1633 35.413 16.2495 35.6442 16.2495C35.8754 16.2495 36.0982 16.1633 36.2692 16.0077C36.4402 15.8521 36.5469 15.6383 36.5687 15.4081Z" fill="white"/>
<path d="M36.5687 24.9653V21.1605C36.547 20.9304 36.4402 20.7166 36.2692 20.561C36.0982 20.4054 35.8754 20.3192 35.6442 20.3192C35.413 20.3192 35.1902 20.4054 35.0192 20.561C34.8482 20.7166 34.7414 20.9304 34.7197 21.1605V24.9653C34.7414 25.1955 34.8482 25.4092 35.0192 25.5648C35.1902 25.7204 35.413 25.8066 35.6442 25.8066C35.8754 25.8066 36.0982 25.7204 36.2692 25.5648C36.4402 25.4092 36.547 25.1955 36.5687 24.9653Z" fill="white"/>
<path d="M7.26444 12.8853C7.75914 12.8853 8.16017 12.4843 8.16017 11.9896C8.16017 11.4949 7.75914 11.0939 7.26444 11.0939C6.76974 11.0939 6.36871 11.4949 6.36871 11.9896C6.36871 12.4843 6.76974 12.8853 7.26444 12.8853Z" fill="white"/>
<path d="M7.26444 19.7964C7.75914 19.7964 8.16017 19.3954 8.16017 18.9007C8.16017 18.406 7.75914 18.0049 7.26444 18.0049C6.76974 18.0049 6.36871 18.406 6.36871 18.9007C6.36871 19.3954 6.76974 19.7964 7.26444 19.7964Z" fill="white"/>
<path d="M7.26444 26.7075C7.75914 26.7075 8.16017 26.3064 8.16017 25.8117C8.16017 25.317 7.75914 24.916 7.26444 24.916C6.76974 24.916 6.36871 25.317 6.36871 25.8117C6.36871 26.3064 6.76974 26.7075 7.26444 26.7075Z" fill="white"/>
<path d="M7.26444 33.6103C7.75914 33.6103 8.16017 33.2093 8.16017 32.7146C8.16017 32.2199 7.75914 31.8188 7.26444 31.8188C6.76974 31.8188 6.36871 32.2199 6.36871 32.7146C6.36871 33.2093 6.76974 33.6103 7.26444 33.6103Z" fill="white"/>
<path d="M24.8585 32.8707L48.3857 33.183L47.4653 32.2626C47.3616 34.8311 46.3731 37.2847 44.6672 39.2077C42.9614 41.1307 40.6431 42.4048 38.1054 42.8141C31.408 43.792 25.861 38.5327 25.7788 31.9421C25.7571 31.712 25.6503 31.4982 25.4794 31.3426C25.3084 31.187 25.0855 31.1008 24.8544 31.1008C24.6232 31.1008 24.4003 31.187 24.2294 31.3426C24.0584 31.4982 23.9516 31.712 23.9299 31.9421C24.012 39.338 30.1013 45.4273 37.6452 44.7535C40.768 44.4231 43.6668 42.977 45.809 40.6808C47.9512 38.3846 49.1929 35.3926 49.3061 32.2544C49.3018 32.0116 49.2035 31.7799 49.0318 31.6082C48.8601 31.4365 48.6285 31.3382 48.3857 31.334L24.8667 31.0299C24.6436 31.0588 24.4386 31.1676 24.2897 31.3362C24.1408 31.5049 24.0582 31.7218 24.0572 31.9467C24.0562 32.1717 24.1369 32.3893 24.2842 32.5593C24.4316 32.7292 24.6357 32.8399 24.8585 32.8707Z" fill="white"/>
<path d="M41.6389 27.6689L48.2706 21.1852H47.3995C50.3826 24.5791 44.9342 29.9945 41.6472 26.7978C41.0801 26.2473 40.2091 27.1183 40.7761 27.6689C45.1972 31.9832 52.2808 24.8913 48.2788 20.3141C48.1622 20.2007 48.006 20.1372 47.8433 20.1372C47.6806 20.1372 47.5244 20.2007 47.4078 20.3141L40.7761 26.7978C40.1926 27.3484 41.0884 28.2195 41.6389 27.6689Z" fill="white"/>
<path d="M37.4233 28.5893C37.2261 32.3037 31.6216 32.3365 31.6216 28.5893C31.6216 24.842 37.2261 24.8749 37.4233 28.5893C37.4644 29.411 38.6971 29.411 38.656 28.5893C38.6549 27.786 38.4183 27.0006 37.9756 26.3303C37.5329 25.66 36.9033 25.1342 36.1649 24.8179C35.4265 24.5016 34.6116 24.4087 33.8209 24.5507C33.0302 24.6927 32.2985 25.0633 31.7163 25.6168C31.134 26.1702 30.7268 26.8822 30.545 27.6647C30.3631 28.4471 30.4146 29.2657 30.6931 30.0192C30.9716 30.7727 31.4648 31.4281 32.1118 31.9042C32.7589 32.3803 33.5312 32.6563 34.3335 32.6981C34.8874 32.7134 35.4389 32.6191 35.9563 32.4207C36.4737 32.2223 36.9468 31.9236 37.3484 31.5418C37.7501 31.16 38.0723 30.7026 38.2967 30.196C38.5211 29.6893 38.6432 29.1433 38.656 28.5893C38.6971 27.8004 37.4644 27.8004 37.4233 28.5893Z" fill="white"/>
<path d="M38.4751 23.4697L43.1016 18.8431C43.2151 18.7265 43.2786 18.5703 43.2786 18.4076C43.2786 18.2449 43.2151 18.0887 43.1016 17.9721L38.4751 13.3455C38.3585 13.2321 38.2022 13.1686 38.0396 13.1686C37.8769 13.1686 37.7206 13.2321 37.604 13.3455L32.9775 17.9721C32.864 18.0887 32.8005 18.2449 32.8005 18.4076C32.8005 18.5703 32.864 18.7265 32.9775 18.8431L37.604 23.4697C37.7208 23.5786 37.8754 23.6378 38.035 23.635C38.1947 23.6322 38.3471 23.5675 38.46 23.4546C38.5729 23.3417 38.6376 23.1893 38.6404 23.0296C38.6432 22.87 38.584 22.7154 38.4751 22.5986L33.8485 17.9721V18.8431L38.4751 14.2166H37.604L42.2306 18.8431V17.9721L37.604 22.5986C37.4951 22.7154 37.4359 22.87 37.4387 23.0296C37.4415 23.1893 37.5062 23.3417 37.6191 23.4546C37.732 23.5675 37.8844 23.6322 38.0441 23.635C38.2037 23.6378 38.3583 23.5786 38.4751 23.4697Z" fill="white"/>
<path d="M27.2252 15.2027C24.8749 15.2027 23.5108 17.0024 23.7984 19.2294C24.0896 20.8615 24.558 22.4569 25.1954 23.9874C25.4748 24.7517 25.8282 26.1897 26.8389 26.2801C27.8497 26.3705 28.1373 25.2611 28.4167 24.6366C29.1563 23.0833 29.708 21.4474 30.0603 19.7635C30.2809 18.8135 30.1275 17.815 29.6318 16.975C29.136 16.135 28.3361 15.5181 27.3977 15.252C27.2397 15.2084 27.0709 15.2294 26.9283 15.3103C26.7858 15.3912 26.6812 15.5254 26.6376 15.6834C26.594 15.8415 26.615 16.0103 26.6959 16.1529C26.7768 16.2954 26.911 16.4 27.069 16.4436C30.2328 17.3393 28.5236 22.122 27.3566 24.0038C26.3787 25.5899 26.1897 23.141 25.9103 22.311C25.7131 21.7275 25.5077 21.1359 25.3433 20.5442C24.8585 18.8103 24.5955 16.4354 27.2334 16.4354C27.3968 16.4343 27.5532 16.3683 27.668 16.2519C27.7828 16.1356 27.8467 15.9784 27.8456 15.8149C27.8445 15.6515 27.7785 15.4951 27.6622 15.3803C27.5458 15.2655 27.3886 15.2016 27.2252 15.2027Z" fill="white"/>
<path d="M26.4609 14.2412V15.8026C26.4609 15.966 26.5259 16.1228 26.6415 16.2384C26.757 16.354 26.9138 16.4189 27.0773 16.4189C27.2407 16.4189 27.3975 16.354 27.5131 16.2384C27.6287 16.1228 27.6936 15.966 27.6936 15.8026V14.2412C27.6936 14.0777 27.6287 13.921 27.5131 13.8054C27.3975 13.6898 27.2407 13.6249 27.0773 13.6249C26.9138 13.6249 26.757 13.6898 26.6415 13.8054C26.5259 13.921 26.4609 14.0777 26.4609 14.2412Z" fill="white"/>
<path d="M11.4062 13.2222H21.0619C21.3889 13.2222 21.7024 13.0924 21.9336 12.8612C22.1647 12.63 22.2946 12.3165 22.2946 11.9896C22.2946 11.6627 22.1647 11.3491 21.9336 11.118C21.7024 10.8868 21.3889 10.7569 21.0619 10.7569H11.4062C11.0793 10.7569 10.7657 10.8868 10.5346 11.118C10.3034 11.3491 10.1735 11.6627 10.1735 11.9896C10.1735 12.3165 10.3034 12.63 10.5346 12.8612C10.7657 13.0924 11.0793 13.2222 11.4062 13.2222Z" fill="white"/>
<path d="M11.4062 20.1333H21.0619C21.3889 20.1333 21.7024 20.0034 21.9336 19.7723C22.1647 19.5411 22.2946 19.2276 22.2946 18.9007C22.2946 18.5737 22.1647 18.2602 21.9336 18.029C21.7024 17.7979 21.3889 17.668 21.0619 17.668H11.4062C11.0793 17.668 10.7657 17.7979 10.5346 18.029C10.3034 18.2602 10.1735 18.5737 10.1735 18.9007C10.1735 19.2276 10.3034 19.5411 10.5346 19.7723C10.7657 20.0034 11.0793 20.1333 11.4062 20.1333Z" fill="white"/>
<path d="M11.4062 27.0444H21.0619C21.3889 27.0444 21.7024 26.9145 21.9336 26.6833C22.1647 26.4522 22.2946 26.1386 22.2946 25.8117C22.2946 25.4848 22.1647 25.1713 21.9336 24.9401C21.7024 24.7089 21.3889 24.5791 21.0619 24.5791H11.4062C11.0793 24.5791 10.7657 24.7089 10.5346 24.9401C10.3034 25.1713 10.1735 25.4848 10.1735 25.8117C10.1735 26.1386 10.3034 26.4522 10.5346 26.6833C10.7657 26.9145 11.0793 27.0444 11.4062 27.0444Z" fill="white"/>
<path d="M11.4062 33.9472H21.0619C21.3889 33.9472 21.7024 33.8174 21.9336 33.5862C22.1647 33.355 22.2946 33.0415 22.2946 32.7146C22.2946 32.3877 22.1647 32.0741 21.9336 31.843C21.7024 31.6118 21.3889 31.4819 21.0619 31.4819H11.4062C11.0793 31.4819 10.7657 31.6118 10.5346 31.843C10.3034 32.0741 10.1735 32.3877 10.1735 32.7146C10.1735 33.0415 10.3034 33.355 10.5346 33.5862C10.7657 33.8174 11.0793 33.9472 11.4062 33.9472Z" fill="white"/>
<path d="M44.9096 35.1388C44.6464 36.2579 44.1513 37.3094 43.4562 38.2253C42.7612 39.1411 41.8817 39.9009 40.8747 40.4556C40.1844 40.8418 40.8007 41.9019 41.4992 41.5239C42.6432 40.8903 43.6425 40.0253 44.4334 38.9839C45.2244 37.9425 45.7895 36.7477 46.0929 35.4757C46.2737 34.7032 45.0904 34.3745 44.9013 35.147L44.9096 35.1388Z" fill="white"/>
</svg>
