<svg width="32" height="45" viewBox="0 0 32 45" fill="none" xmlns="http://www.w3.org/2000/svg">
<path d="M1.32172 2.30533H30.1844L29.0266 1.15779L29.2008 43.6783L30.3586 42.5307L1.15779 42.7049L2.31557 43.8627L2.47951 1.15779C2.45242 0.870833 2.31928 0.604299 2.10611 0.410302C1.89294 0.216304 1.61507 0.108795 1.32684 0.108795C1.03861 0.108795 0.760749 0.216304 0.547579 0.410302C0.334409 0.604299 0.201265 0.870833 0.17418 1.15779L0 43.8422C0.00267471 44.1485 0.125514 44.4414 0.342064 44.6579C0.558614 44.8745 0.851551 44.9973 1.15779 45L30.3586 44.8258C30.6631 44.8232 30.9545 44.7018 31.1708 44.4874C31.3871 44.2731 31.5111 43.9827 31.5164 43.6783L31.3422 1.15779C31.3395 0.851551 31.2167 0.558614 31.0002 0.342064C30.7836 0.125514 30.4907 0.00267471 30.1844 0L1.32172 0C1.03477 0.0270844 0.768233 0.160229 0.574236 0.373399C0.380239 0.586568 0.272729 0.864434 0.272729 1.15266C0.272729 1.44089 0.380239 1.71876 0.574236 1.93193C0.768233 2.1451 1.03477 2.27824 1.32172 2.30533Z" fill="white"/>
<path d="M16.7315 1.15781V43.8422" stroke="white" stroke-miterlimit="10"/>
<path d="M20.8299 14.2213V30.8709C20.857 31.1578 20.9901 31.4244 21.2033 31.6184C21.4165 31.8124 21.6943 31.9199 21.9826 31.9199C22.2708 31.9199 22.5487 31.8124 22.7618 31.6184C22.975 31.4244 23.1081 31.1578 23.1352 30.8709V14.2213C23.1081 13.9343 22.975 13.6678 22.7618 13.4738C22.5487 13.2798 22.2708 13.1723 21.9826 13.1723C21.6943 13.1723 21.4165 13.2798 21.2033 13.4738C20.9901 13.6678 20.857 13.9343 20.8299 14.2213Z" fill="white"/>
<path d="M11.6086 24.0779V28.4324C11.6086 28.6362 11.6895 28.8316 11.8337 28.9757C11.9778 29.1199 12.1732 29.2008 12.377 29.2008C12.5808 29.2008 12.7763 29.1199 12.9204 28.9757C13.0645 28.8316 13.1455 28.6362 13.1455 28.4324V24.0779C13.1455 23.8741 13.0645 23.6786 12.9204 23.5345C12.7763 23.3904 12.5808 23.3094 12.377 23.3094C12.1732 23.3094 11.9778 23.3904 11.8337 23.5345C11.6895 23.6786 11.6086 23.8741 11.6086 24.0779Z" fill="white"/>
<path d="M12.377 17.418H5.71717L6.48562 18.1865V8.19673L5.71717 8.96517H12.377L11.6086 8.19673V18.1865C11.6086 18.3903 11.6895 18.5857 11.8336 18.7299C11.9778 18.874 12.1732 18.9549 12.377 18.9549C12.5808 18.9549 12.7763 18.874 12.9204 18.7299C13.0645 18.5857 13.1455 18.3903 13.1455 18.1865V8.19673C13.1428 7.99375 13.061 7.79983 12.9174 7.65629C12.7739 7.51275 12.58 7.43094 12.377 7.42828H5.71717C5.51419 7.43094 5.32028 7.51275 5.17674 7.65629C5.0332 7.79983 4.95138 7.99375 4.94873 8.19673V18.1865C4.95138 18.3895 5.0332 18.5834 5.17674 18.7269C5.32028 18.8705 5.51419 18.9523 5.71717 18.9549H12.377C12.5808 18.9549 12.7763 18.874 12.9204 18.7299C13.0645 18.5857 13.1455 18.3903 13.1455 18.1865C13.1455 17.9827 13.0645 17.7872 12.9204 17.6431C12.7763 17.499 12.5808 17.418 12.377 17.418Z" fill="white"/>
<path d="M5.71719 13.1967H12.377" stroke="white" stroke-miterlimit="10"/>
</svg>
