<svg width="22" height="23" viewBox="0 0 22 23" fill="none" xmlns="http://www.w3.org/2000/svg">
<path d="M15.3268 13.3159C18.0205 9.51219 17.1196 4.24516 13.3159 1.55212C9.51219 -1.14091 4.24516 -0.240662 1.55212 3.5637C-1.14091 7.36741 -0.240662 12.6338 3.5637 15.3268C6.27861 17.249 9.86804 17.397 12.7316 15.7058L18.9536 21.8905C19.6254 22.5977 20.7432 22.626 21.4504 21.9542C22.1576 21.283 22.1859 20.1653 21.5147 19.4581C21.4935 19.4356 21.4729 19.415 21.4504 19.3937L15.3268 13.3159ZM8.43433 13.8925C5.42855 13.8931 2.99163 11.4581 2.9897 8.45234C2.98905 5.44657 5.42405 3.00964 8.43047 3.00836C11.4324 3.00707 13.868 5.4382 13.8738 8.44012C13.879 11.4465 11.4453 13.8873 8.43819 13.8925C8.4369 13.8925 8.43626 13.8925 8.43433 13.8925Z" fill="#5FE42C"/>
</svg>
