<svg width="24" height="22" viewBox="0 0 24 22" fill="none" xmlns="http://www.w3.org/2000/svg">
<path d="M23.1151 8.35456C23.0778 8.23401 23.0068 8.12662 22.9105 8.04502C22.8143 7.96343 22.6967 7.91101 22.5716 7.89395L15.4338 6.86006L12.2427 0.391634C12.1904 0.274983 12.1055 0.175946 11.9982 0.106459C11.8909 0.0369716 11.7658 0 11.638 0C11.5101 0 11.385 0.0369716 11.2777 0.106459C11.1704 0.175946 11.0855 0.274983 11.0332 0.391634L7.84206 6.86006L0.704263 7.89726C0.577202 7.91091 0.456797 7.961 0.35755 8.04151C0.258303 8.12201 0.184447 8.22949 0.144877 8.351C0.105307 8.47251 0.101711 8.60287 0.134522 8.72638C0.167333 8.84989 0.235152 8.96128 0.32981 9.04713L5.49593 14.0807L4.27648 21.1887C4.24717 21.3161 4.2562 21.4493 4.30243 21.5716C4.34866 21.6939 4.43003 21.7998 4.53629 21.8759C4.64256 21.9521 4.76898 21.9951 4.89964 21.9996C5.0303 22.0041 5.15937 21.9698 5.2706 21.9011L11.6363 18.5443L18.0219 21.8879C18.1331 21.9566 18.2622 21.9908 18.3928 21.9864C18.5235 21.9819 18.6499 21.9388 18.7562 21.8627C18.8625 21.7865 18.9438 21.6807 18.99 21.5584C19.0363 21.4361 19.0453 21.3028 19.016 21.1754L17.78 14.0807L22.9428 9.04713C23.0346 8.96016 23.0996 8.84874 23.1301 8.72602C23.1607 8.6033 23.1554 8.47441 23.1151 8.35456Z" fill="#C0C0C0"/>
</svg>
