<svg width="24" height="22" viewBox="0 0 24 22" fill="none" xmlns="http://www.w3.org/2000/svg">
<path d="M23.0777 8.35456C23.0404 8.23401 22.9694 8.12662 22.8732 8.04502C22.7769 7.96343 22.6593 7.91101 22.5343 7.89395L15.3965 6.86006L12.2054 0.391634C12.1531 0.274983 12.0682 0.175946 11.9608 0.106459C11.8535 0.0369716 11.7284 0 11.6006 0C11.4728 0 11.3477 0.0369716 11.2404 0.106459C11.1331 0.175946 11.0481 0.274983 10.9958 0.391634L7.80471 6.86006L0.66691 7.89726C0.539849 7.91091 0.419444 7.961 0.320197 8.04151C0.22095 8.12201 0.147093 8.22949 0.107524 8.351C0.0679536 8.47251 0.0643576 8.60287 0.0971687 8.72638C0.12998 8.84989 0.197799 8.96128 0.292457 9.04713L5.45858 14.0807L4.23912 21.1887C4.20982 21.3161 4.21884 21.4493 4.26508 21.5716C4.31131 21.6939 4.39267 21.7998 4.49894 21.8759C4.60521 21.9521 4.73162 21.9951 4.86228 21.9996C4.99294 22.0041 5.12201 21.9698 5.23325 21.9011L11.5989 18.5443L17.9845 21.8879C18.0958 21.9566 18.2248 21.9908 18.3555 21.9864C18.4862 21.9819 18.6126 21.9388 18.7188 21.8627C18.8251 21.7865 18.9065 21.6807 18.9527 21.5584C18.9989 21.4361 19.008 21.3028 18.9786 21.1754L17.7426 14.0807L22.9054 9.04713C22.9972 8.96016 23.0622 8.84874 23.0928 8.72602C23.1233 8.6033 23.1181 8.47441 23.0777 8.35456Z" fill="#5FE42C"/>
</svg>
